<svg width="180" height="180" viewBox="0 0 180 180" fill="none" xmlns="http://www.w3.org/2000/svg">
<rect width="180" height="180" fill="#202020"/>
<rect x="15" y="45" width="70.5" height="90" rx="10" fill="#F6F6F6"/>
<path d="M35.3531 108H42V70.5H35.3531L25.5 77.3867V83.6237L35.0142 77.0229H35.3531V108Z" fill="#FF3F33"/>
<path d="M61.5 108C64.3004 108 66.7041 107.237 68.7113 105.711C70.7347 104.184 72.2887 102.028 73.3732 99.2409C74.4577 96.4373 75 93.1111 75 89.2624V89.2127C75 85.364 74.4577 82.0461 73.3732 79.2591C72.2887 76.4555 70.7347 74.2989 68.7113 72.7893C66.7041 71.2631 64.3004 70.5 61.5 70.5C58.6835 70.5 56.2635 71.2631 54.2401 72.7893C52.2329 74.2989 50.6871 76.4555 49.6025 79.2591C48.5342 82.0461 48 85.364 48 89.2127V89.2624C48 93.1111 48.5342 96.4373 49.6025 99.2409C50.6871 102.028 52.2329 104.184 54.2401 105.711C56.2635 107.237 58.6835 108 61.5 108ZM61.5 102.774C59.9784 102.774 58.6754 102.235 57.5908 101.157C56.5225 100.079 55.705 98.5275 55.1385 96.5036C54.5719 94.4798 54.2887 92.066 54.2887 89.2624V89.2127C54.2887 86.4091 54.5719 84.0036 55.1385 81.9964C55.705 79.9725 56.5225 78.4214 57.5908 77.3431C58.6754 76.2648 59.9784 75.7256 61.5 75.7256C63.0216 75.7256 64.3165 76.2648 65.3849 77.3431C66.4532 78.4214 67.2707 79.9725 67.8372 81.9964C68.42 84.0036 68.7113 86.4091 68.7113 89.2127V89.2624C68.7113 92.066 68.42 94.4798 67.8372 96.5036C67.2707 98.5275 66.4532 100.079 65.3849 101.157C64.3165 102.235 63.0216 102.774 61.5 102.774Z" fill="#FF3F33"/>
<rect x="94" y="45" width="70.5" height="90" rx="10" fill="#F6F6F6"/>
<path d="M103.336 106.5H125.843V101.757H109.332L111.054 103.032V100.012L109.309 103.032L117.766 94.8885C119.705 93.0241 121.219 91.4281 122.308 90.1007C123.412 88.7583 124.195 87.5203 124.657 86.3868C125.119 85.2383 125.351 84.0451 125.351 82.8071V82.7624C125.351 80.9576 124.881 79.3617 123.941 77.9746C123.016 76.5875 121.734 75.4986 120.093 74.7081C118.467 73.9027 116.588 73.5 114.455 73.5C112.247 73.5 110.279 73.94 108.548 74.82C106.833 75.6851 105.483 76.8858 104.499 78.422C103.515 79.9434 103.015 81.7034 103 83.702L103.022 83.7915L108.392 83.8139L108.414 83.6797C108.414 82.6058 108.66 81.6512 109.153 80.8159C109.66 79.9807 110.353 79.3244 111.233 78.8471C112.128 78.3698 113.15 78.1312 114.298 78.1312C115.387 78.1312 116.334 78.3475 117.14 78.78C117.945 79.2125 118.564 79.8092 118.997 80.5698C119.444 81.3305 119.668 82.2031 119.668 83.1875V83.2546C119.668 84.06 119.511 84.8356 119.198 85.5814C118.9 86.3122 118.355 87.1475 117.565 88.0871C116.789 89.0268 115.678 90.2125 114.231 91.6444L103.336 102.585V106.5Z" fill="#FF3F33"/>
<path d="M143.889 106.5C146.328 106.5 148.481 106.111 150.348 105.332C152.214 104.553 153.669 103.473 154.712 102.091C155.756 100.695 156.278 99.0932 156.278 97.2856V97.2415C156.278 95.8894 155.969 94.655 155.352 93.5381C154.749 92.4212 153.904 91.488 152.817 90.7385C151.744 89.9743 150.502 89.4526 149.091 89.1733V89.0411C150.913 88.5561 152.376 87.689 153.478 86.4399C154.58 85.1907 155.131 83.7138 155.131 82.009V81.9649C155.131 80.3337 154.646 78.8861 153.676 77.6222C152.721 76.3437 151.398 75.337 149.708 74.6022C148.018 73.8674 146.078 73.5 143.889 73.5C141.699 73.5 139.759 73.8674 138.069 74.6022C136.379 75.337 135.049 76.3437 134.079 77.6222C133.124 78.8861 132.646 80.3337 132.646 81.9649V82.009C132.646 83.7138 133.197 85.1907 134.3 86.4399C135.416 87.689 136.879 88.5561 138.686 89.0411V89.1733C137.276 89.4526 136.026 89.9743 134.939 90.7385C133.866 91.488 133.021 92.4212 132.404 93.5381C131.801 94.655 131.5 95.8894 131.5 97.2415V97.2856C131.5 99.0932 132.022 100.695 133.065 102.091C134.123 103.473 135.578 104.553 137.43 105.332C139.296 106.111 141.449 106.5 143.889 106.5ZM143.889 102.179C142.625 102.179 141.501 101.952 140.516 101.496C139.531 101.04 138.76 100.416 138.201 99.6222C137.643 98.8287 137.364 97.9248 137.364 96.9108V96.8667C137.364 95.838 137.636 94.9269 138.179 94.1333C138.738 93.3397 139.509 92.7151 140.494 92.2595C141.479 91.8039 142.61 91.5762 143.889 91.5762C145.167 91.5762 146.299 91.8039 147.284 92.2595C148.268 92.7151 149.032 93.3397 149.576 94.1333C150.135 94.9269 150.414 95.838 150.414 96.8667V96.9108C150.414 97.9248 150.135 98.8287 149.576 99.6222C149.018 100.416 148.246 101.04 147.262 101.496C146.292 101.952 145.167 102.179 143.889 102.179ZM143.889 87.2335C142.787 87.2335 141.809 87.0351 140.957 86.6383C140.119 86.2415 139.458 85.6904 138.973 84.985C138.503 84.2649 138.268 83.4419 138.268 82.516V82.4719C138.268 81.5608 138.503 80.7525 138.973 80.0471C139.458 79.3417 140.119 78.7906 140.957 78.3938C141.809 77.997 142.787 77.7986 143.889 77.7986C144.991 77.7986 145.961 77.997 146.799 78.3938C147.651 78.7906 148.312 79.3417 148.783 80.0471C149.268 80.7525 149.51 81.5608 149.51 82.4719V82.516C149.51 83.4419 149.268 84.2649 148.783 84.985C148.312 85.6904 147.658 86.2415 146.821 86.6383C145.983 87.0351 145.006 87.2335 143.889 87.2335Z" fill="#FF3F33"/>
</svg>
