<svg width="20" height="17" viewBox="0 0 20 17" fill="none" xmlns="http://www.w3.org/2000/svg">
<path d="M2.88762 0C2.33885 0 1.81256 0.223883 1.42452 0.622398C1.03648 1.02091 0.818481 1.56141 0.818481 2.125L0.818481 14.875C0.818481 16.048 1.74546 17 2.88762 17H17.6672C18.216 17 18.7423 16.7761 19.1303 16.3776C19.5184 15.9791 19.7364 15.4386 19.7364 14.875V4.55357C19.7364 3.98999 19.5184 3.44948 19.1303 3.05097C18.7423 2.65245 18.216 2.42857 17.6672 2.42857H9.68624C9.64035 2.42857 9.59509 2.4176 9.55405 2.39652C9.513 2.37545 9.4773 2.34485 9.44977 2.30714L8.38563 0.85C7.99545 0.315714 7.38062 0 6.73032 0H2.88762Z" fill="#54AEFF"/>
</svg>
