<svg width="180" height="180" viewBox="0 0 180 180" fill="none" xmlns="http://www.w3.org/2000/svg">
<g clip-path="url(#clip0_122_8)">
<rect width="180" height="180" fill="white"/>
<rect width="180" height="180" fill="url(#paint0_linear_122_8)"/>
<path d="M28.8687 49H151.131C154.925 49 158 52.0732 158 55.8644V123.136C158 126.927 154.925 130 151.131 130H28.8687C25.0751 130 22 126.927 22 123.136V55.8644C22 52.0732 25.0751 49 28.8687 49Z" stroke="white" stroke-width="10"/>
<path d="M39 113V66H52.8065L66.6129 83.2794L80.4194 66H94.2258V113H80.4194V86.0441L66.6129 103.324L52.8065 86.0441V113H39ZM125.29 113L104.581 90.1912H118.387V66H132.194V90.1912H146L125.29 113Z" fill="white"/>
</g>
<defs>
<linearGradient id="paint0_linear_122_8" x1="90" y1="0" x2="90" y2="180" gradientUnits="userSpaceOnUse">
<stop stop-color="#499BEA"/>
<stop offset="1" stop-color="#03A7DD"/>
</linearGradient>
<clipPath id="clip0_122_8">
<rect width="180" height="180" fill="white"/>
</clipPath>
</defs>
</svg>
