<svg width="19" height="17" viewBox="0 0 19 17" fill="none" xmlns="http://www.w3.org/2000/svg">
<path d="M0.617079 0.602855C1.01164 0.21712 1.54686 0.000272285 2.10505 0H6.31514C6.97673 0 7.60223 0.30554 7.99918 0.822609L9.08177 2.2328C9.10978 2.26928 9.14611 2.2989 9.18786 2.31929C9.22962 2.33969 9.27566 2.35031 9.32235 2.35031H15.6375C15.9565 2.35031 16.2625 2.47412 16.4881 2.69451C16.7136 2.91489 16.8404 3.21379 16.8404 3.52547V4.11304H3.30793C3.06866 4.11304 2.83919 4.2059 2.67 4.37119C2.50082 4.53648 2.40577 4.76066 2.40577 4.99441C2.40577 5.22816 2.50082 5.45234 2.67 5.61763C2.83919 5.78292 3.06866 5.87578 3.30793 5.87578H17.7161C17.886 5.87563 18.054 5.91066 18.2091 5.97856C18.3642 6.04647 18.5028 6.14569 18.6157 6.26971C18.7287 6.39373 18.8135 6.53973 18.8645 6.69808C18.9155 6.85643 18.9316 7.02355 18.9117 7.18843L18.0433 14.3957C18.0433 14.9411 17.8215 15.4642 17.4267 15.8498C17.0319 16.2355 16.4965 16.4522 15.9382 16.4522H2.10505C1.54675 16.4522 1.01133 16.2355 0.616554 15.8498C0.221781 15.4642 0 14.9411 0 14.3957L0 2.05652C0 1.51125 0.221331 0.98713 0.617079 0.602855Z" fill="#54AEFF"/>
</svg>
